PathFileType	4	(X/Y/Z)	walk-thru1-4-TP.trc
DataRate	CameraRate	NumFrames	NumMarkers	Units	OrigDataRate	OrigDataStartFrame	OrigNumFrames
120.00	120.00	       5	60	mm	120.00	64	       508
Frame#	Time	Top.Head			Front.Head			Rear.Head			Jaw			C7			R.Clavicle			L.Clavicle			R.Shoulder			L.Shoulder			R.Scapula			L.Scapula			R.Scap.Inf			R.Biceps.Lateral			R.Elbow			R.Elbow.Medial			R.Forearm			R.Ulna			R.Radius			R.Wrist			R.Thumb.M1			R.Thumb.M2			R.Thumb.M3			R.Finger3.M1			R.Finger3.M2			R.Finger3.M3			L.Biceps.Lateral			L.Elbow			L.Elbow.Medial			L.Forearm			L.Ulna			L.Radius			L.Wrist			L.Thumb.M1			L.Thumb.M2			L.Thumb.M3			L.Finger3.M1			L.Finger3.M2			L.Finger3.M3			V.Sacral			R.ASIS			L.ASIS			R.Thigh			R.Thigh.Front			R.Knee			R.Knee.Medial			R.Shank			R.Ankle			R.Ankle.Medial			R.Heel			R.Toe			R.MedFoot			L.Thigh			L.Knee			L.Knee.Medial			L.Shank			L.Ankle			L.Ankle.Medial			L.Heel			L.Toe			L.MedFoot			V_mid_ASIS			V_R_Knee_JC			V_L_Knee_JC			V_R_Elbow_JC			V_L_Elbow_JC			V_R_Ankle_JC			V_L_Ankle_JC			V_R_Wrist_JC			V_L_Wrist_JC			V_R_ScaTrpz_1stMC_JC			V_R_1stMC_1stPP_JC			V_R_1stPP_1stDP_JC			V_R_LunCap_3rdMC_JC			V_R_3rdMC_3rdPP_JC			V_R_3rdPP_3rdMP_JC			V_R_3rdMP_3rdDP_JC			V_L_ScaTrpz_1stMC_JC			V_L_1stMC_1stPP_JC			V_L_1stPP_1stDP_JC			V_L_LunCap_3rdMC_JC			V_L_3rdMC_3rdPP_JC			V_L_3rdPP_3rdMP_JC			V_L_3rdMP_3rdPP_JC			V_ROOT_JC			V_R_Hip_JC			V_L_Hip_JC			V_R_GlenHum_JC			V_L_GlenHum_JC			V_ForeHead_Ctr			V_Vertex			V_Sagit_Lambdoid_Suture			V_R_FrontoTemp			V_L_FrontoTemporal			V_R_ParietalOccip			V_L_ParietalOcciptal			V_R_Temporal			V_L_Temporal			V_mid_FrontRearHead			V_mid_RLGlenHumCtrs			V_C7_vert			V_C1_vert			V_Mid_Hip			
		X1	Y1	Z1	X2	Y2	Z2	X3	Y3	Z3	X4	Y4	Z4	X5	Y5	Z5	X6	Y6	Z6	X7	Y7	Z7	X8	Y8	Z8	X9	Y9	Z9	X10	Y10	Z10	X11	Y11	Z11	X12	Y12	Z12	X13	Y13	Z13	X14	Y14	Z14	X15	Y15	Z15	X16	Y16	Z16	X17	Y17	Z17	X18	Y18	Z18	X19	Y19	Z19	X20	Y20	Z20	X21	Y21	Z21	X22	Y22	Z22	X23	Y23	Z23	X24	Y24	Z24	X25	Y25	Z25	X26	Y26	Z26	X27	Y27	Z27	X28	Y28	Z28	X29	Y29	Z29	X30	Y30	Z30	X31	Y31	Z31	X32	Y32	Z32	X33	Y33	Z33	X34	Y34	Z34	X35	Y35	Z35	X36	Y36	Z36	X37	Y37	Z37	X38	Y38	Z38	X39	Y39	Z39	X40	Y40	Z40	X41	Y41	Z41	X42	Y42	Z42	X43	Y43	Z43	X44	Y44	Z44	X45	Y45	Z45	X46	Y46	Z46	X47	Y47	Z47	X48	Y48	Z48	X49	Y49	Z49	X50	Y50	Z50	X51	Y51	Z51	X52	Y52	Z52	X53	Y53	Z53	X54	Y54	Z54	X55	Y55	Z55	X56	Y56	Z56	X57	Y57	Z57	X58	Y58	Z58	X59	Y59	Z59	X60	Y60	Z60	

64	0.525	-745.48560	82.00644	1788.16699	-640.05786	62.53765	1673.09216	-873.51941	94.29660	1707.77112	-719.37494	72.34096	1493.83997	-959.80139	82.07642	1578.71558	-857.38928	-36.49432	1501.75000	-848.40417	208.75061	1491.09668	-906.96436	-141.70316	1490.40552	-899.15320	312.19537	1490.08936	-1019.76245	-14.01327	1486.03418	-1022.57178	177.86121	1482.33435	-1046.51648	-17.45277	1394.95313	-938.44568	-177.72282	1350.39844	-994.66663	-211.45200	1167.76184	-992.95032	-113.11023	1156.25903	-896.81287	-202.70967	1105.03955	-948.12714	-218.13025	968.85455	-838.27747	-201.11458	938.98364	-831.73041	-249.02728	917.04626	-816.56097	-197.91986	893.04083	-814.61945	-178.01178	842.26117	-817.66302	-182.55405	791.88300	-810.71051	-274.39401	839.04840	-848.49786	-247.07414	772.75000	-871.03833	-195.83322	799.53235	-959.38568	339.75641	1345.13586	-1028.60864	348.51065	1177.78735	-1040.18066	252.45393	1154.21411	-947.94836	350.70697	1093.46899	-1016.14355	370.95862	991.21600	-920.91089	354.36240	929.22949	-946.58954	394.69153	898.54681	-899.87793	353.66022	874.23029	-883.14648	330.07477	828.49084	-874.70007	331.57977	779.29260	-925.08911	407.08972	797.24847	-926.09180	373.24008	739.95929	-929.50934	313.34601	742.52264	-1062.27026	81.17614	1123.52307	-868.62042	-106.17851	1066.38379	-870.95819	245.47490	1075.64856	-862.35645	-91.64384	688.60632	-787.02600	-0.86994	595.79352	-827.13409	-60.53025	533.28046	-843.05072	47.33900	531.26666	-813.76794	-15.63477	316.77771	-897.70782	-43.47248	83.29775	-881.01917	58.43322	108.57539	-957.57373	7.45128	46.84990	-726.73767	-4.73366	45.51338	-787.16718	29.65826	82.21233	-838.59357	261.63855	690.18140	-819.96954	253.95993	536.51263	-820.07068	140.92438	516.77747	-920.77252	204.85356	347.80447	-1143.45007	217.05562	202.71452	-1084.45605	125.65989	201.67346	-1190.45374	143.48064	200.02692	-1026.84021	195.40663	69.73174	-1041.87317	162.63539	136.98230																																																																																																																															
65	0.533	-739.36938	81.36166	1789.52698	-634.81049	61.15512	1673.64172	-867.21692	92.48083	1708.40039	-715.16418	72.03112	1494.04810	-954.98083	81.70152	1580.06653	-851.51630	-36.89170	1502.71802	-844.73218	207.84444	1492.03833	-902.34473	-142.88188	1492.53174	-895.19818	312.12198	1490.13318	-1016.03149	-14.77889	1486.39990	-1017.36945	177.66701	1482.31775	-1042.01404	-18.10341	1396.13306	-932.20929	-178.23106	1352.41187	-989.87921	-213.08235	1168.60559	-986.40747	-115.36726	1157.01868	-889.42694	-207.32951	1106.98987	-939.72186	-219.68205	970.18414	-830.55133	-203.00784	941.64612	-822.47809	-250.57393	918.69690	-808.35498	-200.16872	894.26801	-807.57782	-178.22212	845.69373	-810.76123	-181.72272	793.51154	-802.80865	-274.96512	839.46313	-841.65106	-246.22125	773.50824	-865.63342	-194.25960	804.83789	-955.60815	337.47113	1346.41602	-1025.97058	346.63104	1178.92529	-1036.56531	250.95287	1154.87317	-946.04254	348.89090	1093.18774	-1012.25409	368.96359	991.53558	-918.99255	353.29166	930.33643	-944.73938	392.23853	897.06036	-898.86926	353.61090	874.03668	-880.23431	326.96402	828.80780	-874.33881	330.03519	778.66058	-924.64410	403.02267	797.40674	-924.59552	371.77481	740.23383	-928.81549	311.84155	742.94415	-1057.05432	81.19595	1123.51746	-863.18524	-107.22559	1066.92590	-866.09814	244.46915	1075.86755	-859.06750	-92.51336	688.93896	-785.74200	-1.75720	595.96661	-826.52740	-60.90704	533.02032	-841.37109	47.72846	531.24207	-813.43573	-15.36089	316.61429	-897.42792	-43.45864	83.36749	-880.82739	58.49098	108.46902	-957.61169	6.84493	47.44633	-726.64246	-4.69739	45.22976	-787.14044	29.59773	82.26086	-832.61841	258.20331	689.61285	-810.45691	251.92455	537.48187	-811.42896	139.00247	518.17096	-910.83496	204.69945	348.50748	-1130.73596	215.94221	200.43643	-1072.22583	125.52754	200.81123	-1179.89026	144.75848	197.57095	-1011.39508	195.31969	70.37995	-1029.00549	162.27573	137.40880																																																																																																																															
66	0.542	-735.72174	81.67432	1790.10461	-630.38562	60.72183	1673.65466	-863.78741	92.43192	1708.90564	-710.41565	71.34885	1494.38721	-949.41156	81.67863	1579.80505	-848.05298	-37.59179	1502.95447	-840.95850	207.97516	1492.25854	-897.96716	-143.50984	1492.49353	-890.28668	310.26422	1490.37610	-1010.27509	-15.20065	1486.56470	-1013.85303	177.25810	1482.73401	-1036.88879	-18.62565	1396.14050	-927.68091	-179.69168	1352.53601	-982.43347	-214.79364	1168.96680	-980.79376	-116.72068	1156.53979	-882.61963	-207.96423	1107.73511	-932.02240	-221.71910	970.24060	-822.70276	-205.73833	943.78699	-815.28699	-253.33215	918.85620	-800.98126	-201.24329	896.71124	-801.59778	-177.00287	849.20978	-805.26227	-179.13864	797.95789	-795.39984	-273.66028	839.33502	-834.22931	-243.29657	774.70062	-860.48145	-192.24281	805.45282	-951.24640	337.80081	1346.79272	-1021.41278	345.07465	1179.46814	-1034.63269	248.96915	1156.13257	-942.68604	347.17325	1093.38843	-1011.22656	366.34647	991.69897	-916.41321	351.89816	930.57788	-942.98022	390.70288	898.32727	-895.70544	349.75397	874.81317	-877.26263	326.39719	828.83551	-873.49530	327.40512	778.82037	-924.08063	402.08173	797.58716	-923.07599	368.58008	739.50781	-926.64685	308.60043	742.36627	-1052.62756	80.95420	1123.95959	-858.52844	-108.44157	1067.93665	-861.74982	243.86507	1076.90576	-856.97388	-92.57181	688.94269	-783.73547	-1.95955	595.56903	-825.47479	-61.11339	533.13599	-840.35760	46.83533	530.89636	-812.33539	-15.26042	316.59390	-897.14600	-43.31119	83.49026	-880.82739	58.49098	108.46902	-957.50500	6.95493	47.38868	-726.70673	-4.75756	45.02436	-787.18707	29.96426	82.07238	-824.47253	257.96588	690.34113	-801.86816	251.03798	539.71295	-803.08130	137.91090	518.86188	-898.17175	202.31923	348.63382	-1118.81934	216.01762	198.32843	-1059.08289	126.51913	198.45009	-1166.29944	143.98630	193.47702	-994.93451	196.05563	71.25481	-1014.89282	162.50554	137.54610																																																																																																																															
67	0.550	-730.07404	81.07828	1789.94568	-625.63770	61.62068	1673.13660	-857.50116	91.73627	1709.20068	-706.10754	70.06682	1494.55518	-944.16779	80.64096	1579.62817	-842.67059	-37.89595	1503.29333	-834.44299	207.39824	1492.59375	-893.96222	-144.69234	1492.42407	-885.26685	311.36404	1489.86877	-1005.38049	-14.41527	1487.81006	-1008.05188	176.42815	1483.16724	-1032.37036	-20.19608	1396.53052	-923.57269	-181.09360	1353.19946	-976.62152	-216.55037	1169.27600	-974.00879	-118.58308	1156.74084	-877.47491	-209.46767	1109.83337	-924.93604	-223.30391	971.12958	-815.05756	-206.98235	945.22009	-806.67749	-256.04678	921.50012	-793.14459	-201.41713	900.26178	-795.45490	-177.01474	852.96210	-798.91461	-175.62415	798.83301	-787.64661	-272.01468	840.35114	-826.40070	-238.74467	775.98090	-852.84302	-190.14905	807.99121	-947.80316	335.69150	1346.47021	-1018.23010	343.94421	1179.30029	-1029.41113	248.21451	1156.47363	-940.20178	345.75107	1093.18396	-1008.19672	364.30777	991.86493	-914.05743	349.34192	931.33881	-940.36835	388.46783	897.45032	-894.67499	348.62753	874.03900	-877.78735	323.94131	828.43158	-870.67615	325.89236	778.55878	-922.27899	399.96649	797.03461	-922.32660	365.52866	740.28705	-926.16772	306.98688	743.12518	-1048.33020	80.72614	1124.41296	-853.14478	-108.02941	1067.62183	-857.14703	243.24417	1077.10034	-854.82379	-92.73429	688.74469	-781.89734	-2.37098	595.10919	-824.05438	-60.87137	532.33179	-839.29462	47.52898	530.63385	-811.98102	-14.80819	316.52478	-897.01044	-42.78475	83.19090	-880.77765	59.07651	108.49068	-958.19318	7.98345	47.17722	-726.63861	-4.83841	44.94197	-787.03589	30.57992	81.90291	-815.48621	257.50818	693.00671	-793.21063	248.90431	540.85492	-795.57312	136.27277	520.11243	-887.60822	202.11267	348.94745	-1104.28491	216.23590	195.05434	-1045.67017	125.68591	196.51660	-1152.76538	144.00703	188.59016	-978.08258	197.50722	72.05556	-999.85559	162.37851	136.45827																																																																																																																															
68	0.558	-726.09723	80.21958	1790.26050	-621.14386	60.63407	1674.09875	-853.92432	92.27000	1709.45056	-700.18402	70.41630	1495.03247	-940.37579	80.93654	1580.29834	-838.38116	-37.75324	1503.62537	-830.93146	207.11185	1492.93640	-887.75458	-143.79504	1493.87097	-881.70612	310.56372	1490.41260	-1000.61719	-15.88066	1487.34509	-1004.51001	175.97588	1484.01721	-1027.82642	-19.74201	1396.60315	-918.14850	-180.73473	1354.04565	-970.92139	-217.22366	1170.56897	-966.22583	-119.90325	1157.47693	-870.46625	-210.75302	1111.26941	-917.93628	-224.58076	972.21234	-806.59351	-208.66925	948.88452	-799.31177	-256.60880	922.46179	-786.52789	-203.72214	901.86115	-787.73969	-175.13634	855.48486	-791.32068	-174.99771	804.65356	-779.66071	-271.25162	840.60364	-819.25848	-234.93600	778.57605	-847.92499	-188.40076	811.16315	-943.77460	335.90634	1346.90967	-1014.40741	342.55399	1179.92371	-1027.26965	246.29643	1157.67578	-935.55621	344.33047	1093.24377	-1005.02759	363.16510	993.44971	-911.29742	348.07443	930.61481	-937.43030	386.77515	898.26343	-891.32971	347.89758	873.48755	-875.74896	322.25043	828.97302	-871.45465	322.89520	777.99579	-920.87384	397.91110	796.99646	-922.14154	364.32077	740.96814	-925.32367	304.87396	742.71295	-1043.88733	79.93288	1125.02563	-848.89545	-107.85049	1067.22876	-852.58130	242.64548	1076.85559	-851.84888	-93.26284	688.61597	-780.62506	-1.92047	594.82813	-821.70868	-61.25465	532.39124	-838.11273	47.48955	530.68378	-811.15582	-14.99696	316.65283	-897.42157	-42.57845	83.31999	-880.77765	59.07651	108.49068	-958.14240	8.28506	47.18047	-726.48486	-4.88601	44.78171	-786.83020	30.77450	81.80537	-807.93207	257.04852	693.59961	-784.10950	247.90472	541.98230	-787.26056	135.43779	521.03217	-875.93182	199.82494	349.17490	-1090.57678	215.99477	192.12383	-1032.73669	123.71532	194.39902	-1139.31091	143.19133	183.61456	-961.38470	198.03372	72.51325	-984.71252	162.25026	135.70549																																																																																																																															
